<svg width="36" height="24" viewBox="0 0 36 24" fill="none" xmlns="http://www.w3.org/2000/svg">
<path fill-rule="evenodd" clip-rule="evenodd" d="M0.00677533 1.91921C-0.0772648 0.948332 0.630256 0.0921504 1.58707 0.00687493C2.54388 -0.0784007 3.38766 0.639522 3.4717 1.6104C3.75969 4.93749 4.53825 9.90404 5.91042 13.9896C6.59965 16.0418 7.40061 17.7545 8.28427 18.9207C9.17284 20.0933 9.94704 20.4706 10.599 20.4706C11.6791 20.4706 12.7453 19.8937 13.8212 18.6248C14.5663 17.7462 15.2409 16.6176 15.8383 15.351C15.7705 15.183 15.7044 15.015 15.6399 14.8474C14.8014 12.6669 14.2017 10.4344 13.811 8.61471C13.4312 6.84559 13.2174 5.3203 13.2174 4.58832C13.2174 1.8069 15.5023 0.000106959 17.7392 0.000106959V3.5295C17.1934 3.5295 16.6957 3.98153 16.6957 4.58832C16.6957 4.91516 16.8363 6.12515 17.2096 7.86338C17.3552 8.5415 17.5314 9.27763 17.7392 10.0433C17.947 9.27763 18.1233 8.5415 18.2689 7.86338C18.6421 6.12515 18.7827 4.91516 18.7827 4.58832C18.7827 3.98153 18.285 3.5295 17.7392 3.5295V0.000106959C19.9761 0.000106959 22.261 1.8069 22.261 4.58832C22.261 5.3203 22.0472 6.84559 21.6674 8.61471C21.2767 10.4344 20.677 12.6669 19.8385 14.8474C19.774 15.015 19.7079 15.183 19.6401 15.351C20.2375 16.6176 20.9122 17.7462 21.6572 18.6248C22.7331 19.8937 23.7993 20.4706 24.8794 20.4706C25.5314 20.4706 26.3056 20.0933 27.1941 18.9207C28.0778 17.7545 28.8788 16.0418 29.568 13.9896C30.9402 9.90404 31.7187 4.93749 32.0067 1.6104C32.0908 0.639522 32.9345 -0.0784007 33.8913 0.00687493C34.8482 0.0921504 35.5557 0.948332 35.4716 1.91921C35.169 5.41562 34.3528 10.6843 32.8603 15.1281C32.1172 17.3406 31.1684 19.4661 29.9516 21.072C28.7396 22.6714 27.0626 24 24.8794 24C22.4157 24 20.4696 22.6357 19.0205 20.9267C18.5596 20.3831 18.1332 19.7874 17.7392 19.158C17.3452 19.7874 16.9188 20.3831 16.4579 20.9267C15.0088 22.6357 13.0628 24 10.599 24C8.41578 24 6.73878 22.6714 5.52685 21.072C4.31003 19.4661 3.36119 17.3406 2.6181 15.1281C1.12562 10.6843 0.309428 5.41562 0.00677533 1.91921Z" fill="#7864F4"/>
</svg>
